<?xml version="1.0" encoding="UTF-8"?>
<svg version="1.1" xmlns="http://www.w3.org/2000/svg" width="96" height="96">
<path d="M0 0 C1.08628693 0.00303635 1.08628693 0.00303635 2.19451904 0.00613403 C3.3334964 0.00350555 3.3334964 0.00350555 4.4954834 0.00082397 C7.0175807 -0.00359473 9.53960847 -0.00065649 12.06170654 0.00271606 C13.80666111 0.00204303 15.55161558 0.00107301 17.29656982 -0.00018311 C20.95852549 -0.0016601 24.62045682 0.00049454 28.28240967 0.00515747 C32.98715147 0.01085476 37.69183622 0.00757577 42.39657593 0.00158501 C46.00124546 -0.00202055 49.60590136 -0.00088204 53.21057129 0.0017128 C54.94580085 0.00238208 56.68103163 0.0015536 58.41625977 -0.00076675 C60.83717142 -0.0032932 63.25798941 0.00054718 65.67889404 0.00613403 C66.40308533 0.0041098 67.12727661 0.00208557 67.87341309 0 C72.82244388 0.0212659 72.82244388 0.0212659 73.93670654 1.13552856 C74.03626932 3.30815537 74.06470373 5.48405962 74.06610107 7.65896606 C74.06872955 8.68090057 74.06872955 8.68090057 74.07141113 9.72348022 C74.07582896 11.98585523 74.07289192 14.2481527 74.06951904 16.51052856 C74.0701921 18.07612117 74.07116214 19.64171367 74.07241821 21.20730591 C74.07389509 24.49263501 74.07174095 27.77793698 74.06707764 31.06326294 C74.06138035 35.28373372 74.06465941 39.50414093 74.0706501 43.72460938 C74.07425599 46.95869428 74.073117 50.19276401 74.07052231 53.42684937 C74.06985311 54.98344938 74.0706812 56.54005075 74.07300186 58.09664917 C74.07552884 60.26850052 74.07168719 62.44024752 74.06610107 64.61209106 C74.06530548 65.85039673 74.06450989 67.08870239 74.06369019 68.36453247 C73.93670654 71.13552856 73.93670654 71.13552856 72.93670654 72.13552856 C70.50813619 72.23582713 68.10799041 72.27171281 65.67889404 72.2649231 C64.91957581 72.26667542 64.16025757 72.26842773 63.37792969 72.27023315 C60.85583239 72.27465186 58.33380462 72.27171362 55.81170654 72.26834106 C54.06675198 72.2690141 52.3217975 72.26998412 50.57684326 72.27124023 C46.91488759 72.27271723 43.25295627 72.27056259 39.59100342 72.26589966 C34.88626162 72.26020237 30.18157686 72.26348136 25.47683716 72.26947212 C21.87216763 72.27307768 18.26751173 72.27193917 14.6628418 72.26934433 C12.92761224 72.26867505 11.19238146 72.26950353 9.45715332 72.27182388 C7.03624167 72.27435033 4.61542368 72.27050995 2.19451904 72.2649231 C1.47032776 72.26694733 0.74613647 72.26897156 0 72.27105713 C-4.94903079 72.24979123 -4.94903079 72.24979123 -6.06329346 71.13552856 C-6.16285623 68.96290176 -6.19129064 66.7869975 -6.19268799 64.61209106 C-6.19444031 63.93080139 -6.19619263 63.24951172 -6.19799805 62.5475769 C-6.20241588 60.28520189 -6.19947883 58.02290443 -6.19610596 55.76052856 C-6.19677902 54.19493596 -6.19774906 52.62934346 -6.19900513 51.06375122 C-6.20048201 47.77842212 -6.19832787 44.49312015 -6.19366455 41.20779419 C-6.18796726 36.9873234 -6.19124632 32.7669162 -6.19723701 28.54644775 C-6.2008429 25.31236284 -6.19970392 22.07829312 -6.19710922 18.84420776 C-6.19644003 17.28760775 -6.19726811 15.73100638 -6.19958878 14.17440796 C-6.20211576 12.00255661 -6.1982741 9.8308096 -6.19268799 7.65896606 C-6.1918924 6.4206604 -6.1910968 5.18235474 -6.1902771 3.90652466 C-5.97518713 -0.78709938 -4.22980769 0.01817541 0 0 Z M1.93670654 8.13552856 C1.93670654 17.04552856 1.93670654 25.95552856 1.93670654 35.13552856 C7.34558025 30.58023128 7.34558025 30.58023128 12.12420654 25.69802856 C13.05233154 24.85240356 13.98045654 24.00677856 14.93670654 23.13552856 C17.89968822 23.44593617 18.79159943 23.99042145 20.93670654 26.13552856 C20.82350352 29.41841633 19.65385792 30.43907343 17.37420654 32.88552856 C16.16764404 33.99927856 16.16764404 33.99927856 14.93670654 35.13552856 C16.05262391 37.73933576 17.00342022 39.19652392 19.12420654 41.13552856 C20.93670654 43.13552856 20.93670654 43.13552856 20.93670654 45.19802856 C19.69577644 47.60233063 18.11701191 48.5838193 15.93670654 50.13552856 C15.00987061 49.19709106 14.08303467 48.25865356 13.12811279 47.29177856 C11.91860858 46.07289835 10.70896604 44.8541554 9.49920654 43.63552856 C8.88754639 43.0154895 8.27588623 42.39545044 7.64569092 41.75662231 C7.06239014 41.17009888 6.47908936 40.58357544 5.87811279 39.97927856 C5.06902466 39.16233521 5.06902466 39.16233521 4.24359131 38.32888794 C3.10859129 37.02314434 3.10859129 37.02314434 1.93670654 37.13552856 C1.93670654 46.04552856 1.93670654 54.95552856 1.93670654 64.13552856 C23.05670654 64.13552856 44.17670654 64.13552856 65.93670654 64.13552856 C65.93670654 55.22552856 65.93670654 46.31552856 65.93670654 37.13552856 C60.52783283 41.69082585 60.52783283 41.69082585 55.74920654 46.57302856 C54.35701904 47.84146606 54.35701904 47.84146606 52.93670654 49.13552856 C49.97372486 48.82512096 49.08181366 48.28063568 46.93670654 46.13552856 C47.04990957 42.8526408 48.21955517 41.8319837 50.49920654 39.38552856 C51.30358154 38.64302856 52.10795654 37.90052856 52.93670654 37.13552856 C51.82078918 34.53172137 50.86999287 33.07453321 48.74920654 31.13552856 C46.93670654 29.13552856 46.93670654 29.13552856 46.93670654 27.07302856 C48.17763664 24.6687265 49.75640118 23.68723783 51.93670654 22.13552856 C52.86354248 23.07396606 53.79037842 24.01240356 54.74530029 24.97927856 C55.9548045 26.19815878 57.16444705 27.41690172 58.37420654 28.63552856 C58.9858667 29.25556763 59.59752686 29.87560669 60.22772217 30.51443481 C60.81102295 31.10095825 61.39432373 31.68748169 61.99530029 32.29177856 C62.53469238 32.83640747 63.07408447 33.38103638 63.62982178 33.94216919 C64.7648218 35.24791279 64.7648218 35.24791279 65.93670654 35.13552856 C65.93670654 26.22552856 65.93670654 17.31552856 65.93670654 8.13552856 C44.81670654 8.13552856 23.69670654 8.13552856 1.93670654 8.13552856 Z " fill="rgb(68 120 255)" transform="translate(14.06329345703125,11.864471435546875)"/>
<path d="M0 0 C3.3 0 6.6 0 10 0 C5.6004717 13.43928858 0.97695508 26.76341734 -4 40 C-7.3 40 -10.6 40 -14 40 C-9.6004717 26.56071142 -4.97695508 13.23658266 0 0 Z " fill="rgb(68 120 255)" transform="translate(50,28)"/>
</svg>
